#!OML:ASF F:\VICON\USERDATA\INSTALL\rory3\rory3.ASF
:FULLY-SPECIFIED
:DEGREES
980
root 0.794639 15.7076 3.10814 6.87912 -42.4489 12.8313
lowerback -0.0838751 5.46539 5.27442
upperback 2.8949 7.22455 -1.35591
thorax 3.87763 3.77608 -4.03407
lowerneck 2.9457 -9.85794 -12.3518
upperneck 47.8503 -19.4089 8.3115
head 21.2952 -9.44006 3.3912
rclavicle -1.27222e-014 6.36111e-015
rhumerus -25.186 16.5686 -96.3576
rradius 19.0709
rwrist 21.8935
rhand -27.2401 -54.147
rfingers 7.12502
rthumb -0.651952 -84.1258
lclavicle -1.27222e-014 6.36111e-015
lhumerus -70.0303 -83.0236 146.444
lradius 83.6254
lwrist 26.7849
lhand 1.23412 -19.9753
lfingers 7.12502
lthumb 26.7719 8.15017
rfemur -32.1804 -0.489728 -4.48772
rtibia 75.2958
rfoot -3.02795 -10.4165
rtoes -30.9314
lfemur -50.5442 -20.7773 -29.3295
ltibia 57.2122
lfoot -20.6851 -1.65551
ltoes 20.7208
981
root 0.787768 15.7111 3.10785 6.68082 -42.6257 12.9269
lowerback -0.0122935 5.51738 5.16985
upperback 2.95926 7.29893 -1.38629
thorax 3.90352 3.81267 -4.00713
lowerneck 2.91706 -9.85341 -12.2439
upperneck 47.9 -19.3678 8.20222
head 21.2833 -9.41194 3.32323
rclavicle 1.59028e-015 1.11319e-014
rhumerus -25.1344 16.3794 -96.3524
rradius 19.1149
rwrist 21.9475
rhand -27.3439 -53.8954
rfingers 7.12502
rthumb -0.752254 -83.8738
lclavicle 1.59028e-015 1.11319e-014
lhumerus -70.2384 -83.1405 146.622
lradius 83.6568
lwrist 26.8804
lhand 1.10619 -19.9963
lfingers 7.12502
lthumb 26.6495 8.14786
rfemur -32.0851 -0.231356 -4.56988
rtibia 75.3046
rfoot -3.16927 -10.4401
rtoes -31.4484
lfemur -50.3427 -20.6346 -29.464
ltibia 57.2171
lfoot -20.8428 -1.50728
ltoes 20.8505
982
root 0.789395 15.7076 3.11039 6.85073 -42.6242 12.9501
lowerback -0.241203 5.53463 5.21133
upperback 2.9437 7.31286 -1.44031
thorax 4.03078 3.8244 -4.06131
lowerneck 2.93092 -9.8559 -12.1381
upperneck 47.7924 -19.3623 8.22539
head 21.1661 -9.38898 3.31617
rclavicle -1.27222e-013 6.36111e-015
rhumerus -25.0111 16.1433 -96.3219
rradius 19.1101
rwrist 22.081
rhand -27.3024 -53.8637
rfingers 7.12502
rthumb -0.712135 -83.8422
lclavicle -1.27222e-013 6.36111e-015
lhumerus -69.9374 -83.2067 146.301
lradius 83.6449
lwrist 26.7792
lhand 1.67739 -20.1174
lfingers 7.12502
lthumb 27.196 7.94249
rfemur -32.2814 -0.359923 -4.63879
rtibia 75.3291
rfoot -3.24213 -10.2708
rtoes -30.7331
lfemur -50.5629 -20.6806 -29.4252
ltibia 57.2191
lfoot -20.8148 -1.41534
ltoes 20.5109
983
root 0.801958 15.6927 3.11401 7.313 -42.3123 12.9801
lowerback -0.718544 5.42765 5.38771
upperback 2.81098 7.14879 -1.51325
thorax 4.17482 3.74987 -4.20292
lowerneck 2.89828 -9.85843 -12.1576
upperneck 47.79 -19.3702 8.23456
head 21.1832 -9.39466 3.31963
rclavicle 7.63333e-014 1.59028e-014
rhumerus -24.9324 16.0312 -96.3256
rradius 19.0293
rwrist 22.2885
rhand -27.0917 -54.2096
rfingers 7.12502
rthumb -0.508682 -84.1888
lclavicle 7.63333e-014 1.59028e-014
lhumerus -69.5463 -83.1487 145.873
lradius 83.6341
lwrist 26.7302
lhand 1.55923 -20.2431
lfingers 7.12502
lthumb 27.083 7.83442
rfemur -32.7313 -0.960026 -4.72022
rtibia 75.465
rfoot -3.20286 -10.0838
rtoes -29.9731
lfemur -51.2133 -21.0555 -29.2404
ltibia 57.269
lfoot -20.5821 -1.47693
ltoes 20.0763
984
root 0.792335 15.7007 3.10812 7.00883 -42.5014 12.9714
lowerback -0.385944 5.42019 5.2809
upperback 2.92928 7.15362 -1.48328
thorax 4.09373 3.74921 -4.14025
lowerneck 2.71266 -9.87392 -12.0989
upperneck 47.872 -19.3436 8.09044
head 21.2551 -9.37731 3.22757
rclavicle 1.52667e-013 -2.06736e-014
rhumerus -24.7908 16.0826 -96.3543
rradius 18.9876
rwrist 22.4215
rhand -26.8886 -54.4039
rfingers 7.12502
rthumb -0.312513 -84.3834
lclavicle 1.52667e-013 -2.06736e-014
lhumerus -68.9433 -83.1539 145.233
lradius 83.6316
lwrist 26.9269
lhand 1.06655 -19.8543
lfingers 7.12502
lthumb 26.6115 8.2956
rfemur -32.4736 -0.625849 -4.64746
rtibia 75.4579
rfoot -3.09299 -10.2286
rtoes -30.0157
lfemur -50.815 -20.8311 -29.2945
ltibia 57.2644
lfoot -20.6341 -1.37227
ltoes 18.5082
985
root 0.795564 15.6972 3.10834 7.10729 -42.4046 13.0456
lowerback -0.906076 5.29928 5.345
upperback 3.15033 6.96115 -1.48948
thorax 4.60615 3.67079 -4.13049
lowerneck 2.42552 -9.8189 -12.1906
upperneck 47.8266 -19.1617 8.01263
head 21.2612 -9.31382 3.21646
rclavicle -1.74931e-014 1.59028e-015
rhumerus -24.3547 16.5058 -96.3361
rradius 18.9291
rwrist 22.3273
rhand -26.7734 -54.3796
rfingers 7.12502
rthumb -0.201251 -84.3593
lclavicle -1.74931e-014 1.59028e-015
lhumerus -65.2352 -83.2466 141.539
lradius 83.5916
lwrist 26.9348
lhand 1.61115 -19.5851
lfingers 7.12502
lthumb 27.1326 8.48464
rfemur -32.6243 -0.850749 -4.71789
rtibia 75.5133
rfoot -3.01279 -10.2073
rtoes -30.3043
lfemur -51.0286 -20.9991 -29.2387
ltibia 57.2795
lfoot -20.5949 -1.33688
ltoes 17.8503
986
root 0.798391 15.695 3.11139 7.22441 -42.3642 13.0281
lowerback -1.6473 5.15835 5.54801
upperback 3.5056 6.71946 -1.44719
thorax 5.39324 3.58043 -4.12656
lowerneck 2.14786 -9.68783 -12.5904
upperneck 47.6974 -18.8978 8.15035
head 21.2965 -9.25688 3.38679
rclavicle -6.36111e-015 3.81667e-014
rhumerus -23.885 17.3544 -96.3194
rradius 18.9399
rwrist 21.9694
rhand -26.5751 -54.7147
rfingers 7.12502
rthumb -0.00966141 -84.6945
lclavicle -6.36111e-015 3.81667e-014
lhumerus -59.22 -83.2249 135.543
lradius 83.5435
lwrist 26.7003
lhand 2.81009 -19.9526
lfingers 7.12502
lthumb 28.2791 7.93286
rfemur -32.7111 -0.937523 -4.73198
rtibia 75.5009
rfoot -3.15136 -10.1533
rtoes -30.0919
lfemur -51.1859 -21.2166 -29.1057
ltibia 57.2697
lfoot -20.5646 -1.29055
ltoes 18.4529
987
root 0.7964 15.6981 3.11407 7.2757 -42.4484 12.8389
lowerback -1.47599 5.12059 5.61821
upperback 3.46057 6.67165 -1.36169
thorax 5.24016 3.55286 -4.09927
lowerneck 2.19079 -9.6185 -12.7727
upperneck 47.7305 -18.8184 8.21737
head 21.3492 -9.25889 3.47349
rclavicle 7.95139e-016 1.59028e-014
rhumerus -24.1539 17.7939 -96.4388
rradius 19.1356
rwrist 21.6592
rhand -26.3854 -55.1294
rfingers 7.12502
rthumb 0.173519 -85.1091
lclavicle 7.95139e-016 1.59028e-014
lhumerus -58.9625 -83.0173 135.254
lradius 83.5692
lwrist 26.498
lhand 3.01475 -20.0709
lfingers 7.12502
lthumb 28.4747 7.78198
rfemur -32.6103 -0.756216 -4.5913
rtibia 75.4313
rfoot -3.47334 -10.1495
rtoes -28.7735
lfemur -51.108 -21.2539 -28.9308
ltibia 57.2675
lfoot -20.5637 -1.11659
ltoes 18.4206
